<svg width="185" height="220" viewBox="0 0 185 220" fill="none" xmlns="http://www.w3.org/2000/svg">
<path d="M175.074 57.5875L175.549 56.8733L175.861 56.0747C180.356 44.5999 171.023 32.4108 158.735 33.8615L158.734 33.8615L93.0567 41.6188L102.579 3.87725L94.8219 1.92019L102.579 3.87724C105.129 -6.22947 97.4884 -16.0369 87.065 -16.0369H7.76302C-0.717766 -16.0369 -7.72531 -9.41959 -8.21075 -0.952706L-15.3651 123.83C-15.7594 128.936 -14.7489 134.265 -10.9811 138.185C-7.10068 142.221 -1.85415 143.157 2.72037 142.617L2.92085 142.593L3.11988 142.559L47.7307 134.992L-33.9891 343.348L-19.8803 350.699L175.074 57.5875Z" fill="#0D0D10" stroke="#202027" stroke-width="16"/>
</svg>
