<svg width="297" height="119" viewBox="0 0 297 119" fill="none" xmlns="http://www.w3.org/2000/svg">
<g filter="url(#filter0_d_1310_101)">
<path fill-rule="evenodd" clip-rule="evenodd" d="M40.5758 40.045C40.3593 40.0992 40.104 40.3192 40.0175 40.5263C39.9433 40.7039 40.0702 42.8071 41.0977 58.4212C42.3953 78.1404 42.3694 77.7736 42.4791 77.9867C42.7337 78.4812 43.422 78.603 43.7829 78.2174C43.8542 78.1411 46.5089 73.2322 49.6821 67.3086L55.4514 56.5386L51.2362 56.5079C47.4149 56.4801 47.0032 56.4675 46.8299 56.3725C46.6225 56.259 46.4379 55.9374 46.4379 55.6898C46.4379 55.6045 47.7224 52.0542 49.2923 47.8003C50.8622 43.5464 52.1466 40.0511 52.1466 40.033C52.1466 39.9914 40.7424 40.0033 40.5758 40.045ZM61.8446 40.3529C61.7719 40.547 60.9789 42.694 60.0825 45.1242C59.1861 47.5544 58.4396 49.5772 58.4236 49.6194C58.4006 49.6803 59.1893 49.6961 62.2407 49.6961C66.4851 49.6961 66.3301 49.6823 66.5742 50.0827C66.7374 50.3502 66.725 50.6218 66.5323 51.0022C66.443 51.1783 64.3989 55.0032 61.9899 59.5021C59.5808 64.001 57.6097 67.6946 57.6097 67.71C57.6097 67.7255 59.7712 67.7381 62.413 67.738C67.1224 67.7378 67.2203 67.7353 67.4194 67.6139C67.5312 67.5458 67.6596 67.4009 67.7047 67.2919C67.7498 67.183 68.8102 62.6478 70.061 57.2136C73.8471 40.7659 73.8254 40.8622 73.7838 40.6724C73.7298 40.4271 73.524 40.1845 73.2849 40.0846C73.1178 40.0149 72.1096 40 67.5296 40H61.9768L61.8446 40.3529ZM87.0738 53.8691V67.7382H94.7161H102.358V64.3937V61.0491H98.0308H93.7033V50.5246V40H90.3886H87.0738V53.8691ZM146.186 45.8984C143.383 46.2183 140.977 47.3981 139.353 49.2498C137.959 50.8398 137.066 52.9574 136.797 55.3112C136.715 56.03 136.716 57.8236 136.798 58.5815C137.078 61.1566 138.089 63.3341 139.798 65.0421C140.972 66.2154 142.2 66.9624 143.821 67.4897C145.161 67.9254 145.795 68.0127 147.629 68.0136C149.058 68.0143 149.298 67.9995 149.931 67.8716C151.866 67.4802 153.514 66.6955 154.895 65.5082C156.069 64.4986 157.145 62.9192 157.629 61.494L157.78 61.0491H154.162C151.837 61.0491 150.544 61.0707 150.544 61.1093C150.544 61.1425 150.365 61.3592 150.147 61.5911C149.455 62.3238 148.622 62.6455 147.419 62.6438C146.183 62.642 145.365 62.3186 144.558 61.5114C143.856 60.81 143.518 60.0565 143.337 58.7939L143.3 58.5331H150.786C156.14 58.5331 158.283 58.5139 158.313 58.4659C158.396 58.3322 158.42 55.8142 158.345 55.1578C157.853 50.8618 155.395 47.7146 151.523 46.4242C149.991 45.9136 147.878 45.7054 146.186 45.8984ZM168.015 45.8973C164.825 46.2337 162.437 47.6486 161.346 49.8495C160.851 50.848 160.771 51.2357 160.772 52.6111C160.772 53.7065 160.783 53.8103 160.941 54.3271C161.19 55.1409 161.486 55.6531 162.051 56.25C163.305 57.575 164.4 58.0732 168.213 59.0534C171.823 59.9815 172.461 60.3435 172.457 61.4614C172.455 61.9212 172.304 62.2469 171.947 62.5612C171.484 62.9691 171.094 63.0887 170.126 63.1202C168.853 63.1615 168.125 62.9337 167.394 62.2655C167.089 61.9868 166.688 61.3524 166.688 61.1479C166.688 61.0583 166.379 61.0491 163.367 61.0491H160.045L160.086 61.2793C160.721 64.8539 163.772 67.3881 168.119 67.9512C169.058 68.0728 170.885 68.0734 171.809 67.9523C175.337 67.49 177.821 65.6659 178.549 63.0029C178.669 62.5628 178.689 62.3453 178.688 61.448C178.687 60.5637 178.666 60.3253 178.549 59.8831C178.071 58.0775 176.667 56.6278 174.655 55.8613C173.628 55.4703 172.308 55.0731 170.586 54.6372C168.107 54.0094 167.41 53.6958 167.096 53.0665C166.695 52.2607 167.037 51.4177 167.931 51.0112C168.279 50.8532 168.393 50.8347 169.144 50.8127C170.089 50.7851 170.531 50.8679 171.127 51.1844C171.755 51.518 172.33 52.2905 172.433 52.9405L172.474 53.1941H175.535H178.597V53.0349C178.597 52.7404 178.352 51.6718 178.16 51.1267C177.78 50.0509 177.225 49.1453 176.466 48.3646C175.099 46.9573 173.449 46.2043 171.108 45.9196C170.344 45.8267 168.791 45.8155 168.015 45.8973ZM192.868 45.8955C190.728 46.1868 188.881 47.2581 187.637 48.93L187.501 49.1131L187.499 47.6249L187.497 46.1368H184.152H180.807V60.0059V73.875H184.152H187.497L187.498 69.3491L187.499 64.8232L187.661 65.038C187.983 65.4631 188.949 66.3728 189.401 66.6761C190.384 67.3364 191.449 67.7564 192.645 67.9551C193.573 68.1094 195.314 68.0543 196.215 67.8419C198.918 67.2047 201.069 65.4473 202.405 62.7829C202.941 61.7147 203.375 60.2332 203.548 58.8828C203.657 58.0333 203.672 56.0449 203.576 55.1708C203.395 53.532 202.851 51.7889 202.131 50.5403C200.747 48.1418 198.62 46.56 196.042 46.0113C195.352 45.8645 193.574 45.7996 192.868 45.8955ZM246.248 45.9001C243.95 46.1402 241.909 47.0478 240.648 48.3898C240.126 48.9451 239.908 49.2661 239.577 49.964C238.921 51.349 238.82 53.0996 239.312 54.5715C239.54 55.256 239.828 55.7339 240.333 56.2696C241.097 57.0788 241.969 57.6397 243.138 58.0725C243.859 58.3396 245.352 58.7748 246.419 59.0291C248.234 59.4616 249.603 59.9195 250.117 60.2661C250.674 60.6406 250.885 61.2226 250.698 61.8663C250.532 62.4346 250.035 62.8443 249.269 63.0439C248.798 63.1664 247.61 63.1652 247.129 63.0417C246.113 62.7809 245.291 62.0981 245.007 61.2793L244.928 61.0491H241.624H238.321L238.349 61.1872C238.719 63.0105 239.305 64.1174 240.528 65.3035C242.041 66.7711 244.101 67.6787 246.608 67.9821C247.4 68.0779 249.321 68.06 250.122 67.9493C253.679 67.4576 256.138 65.6344 256.841 62.968C256.975 62.462 256.999 62.2346 257 61.5094C257.001 60.5466 256.902 59.9623 256.608 59.1993C256.157 58.0293 255.082 56.9046 253.761 56.2221C252.918 55.7867 250.862 55.1243 248.758 54.6107C245.973 53.9308 245.237 53.4679 245.237 52.3963C245.237 51.6291 245.688 51.1214 246.579 50.8839C247.004 50.7708 248.212 50.7771 248.663 50.8947C249.693 51.1628 250.484 51.9271 250.693 52.8565L250.762 53.1634L253.845 53.1793L256.928 53.1952L256.89 52.9645C256.613 51.2819 256.166 50.1509 255.35 49.0639C253.97 47.2253 251.921 46.1697 249.197 45.8942C248.458 45.8196 246.99 45.8225 246.248 45.9001ZM226.788 45.9606C224.867 46.1907 223.222 46.9842 221.976 48.2815L221.381 48.9014V47.5191V46.1368H218.066H214.752V56.9375V67.7382H218.064H221.377L221.397 61.3099C221.417 54.9348 221.418 54.8779 221.55 54.4232C221.84 53.4219 222.403 52.6057 223.143 52.1148C224.277 51.3622 226.146 51.2607 227.443 51.8813C228.251 52.2677 228.947 53.0411 229.278 53.9184C229.609 54.7947 229.606 54.7344 229.606 61.4841V67.7382H232.924H236.241L236.219 60.6349C236.197 53.6853 236.194 53.517 236.066 52.8565C235.685 50.8903 235.046 49.5418 233.934 48.3594C233.001 47.3673 232.079 46.7731 230.826 46.3561C230.476 46.2396 229.941 46.1005 229.637 46.0471C228.94 45.9245 227.464 45.8798 226.788 45.9606ZM104.445 56.9375V67.7382H107.791H111.136V56.9375V46.1368H107.791H104.445V56.9375ZM113.407 46.1957C113.407 46.2286 115.082 50.9718 117.128 56.7361C119.175 62.5004 120.89 67.334 120.94 67.4774L121.03 67.7382H125.132H129.233L129.354 67.3853C129.421 67.1912 131.136 62.3566 133.166 56.6417C135.195 50.9268 136.856 46.2253 136.856 46.1938C136.856 46.1593 135.468 46.1368 133.342 46.1369L129.827 46.1371L127.497 53.8045C126.215 58.0216 125.156 61.4622 125.144 61.4503C125.132 61.4385 124.079 57.995 122.803 53.7982L120.482 46.1675L116.945 46.1516C114.675 46.1414 113.407 46.1572 113.407 46.1957ZM205.79 56.9375V67.7382H209.104H212.419V56.9375V46.1368H209.104H205.79V56.9375ZM148.979 51.3511C150.508 51.8333 151.588 53.148 151.588 54.5264V54.851H147.472H143.357L143.397 54.6209C143.467 54.2101 143.773 53.3852 143.985 53.0341C144.468 52.2322 145.54 51.4742 146.493 51.2606C147.093 51.126 148.419 51.1743 148.979 51.3511ZM193.43 51.7857C194.63 52.0907 195.727 52.9874 196.301 54.1323C196.772 55.0712 196.851 55.4699 196.851 56.9068C196.851 58.3358 196.772 58.7348 196.309 59.6684C195.97 60.3529 195.539 60.8812 194.966 61.316C194.441 61.7145 194.067 61.9083 193.45 62.1013C192.852 62.2886 191.564 62.3034 190.935 62.1302C189.672 61.7828 188.556 60.828 187.986 59.607C187.324 58.1907 187.268 56.1565 187.849 54.5913C188.243 53.5262 189.273 52.4338 190.293 51.9976C191.235 51.5952 192.377 51.518 193.43 51.7857Z" fill="white"/>
</g>
<defs>
<filter id="filter0_d_1310_101" x="0" y="0" width="297" height="118.445" filterUnits="userSpaceOnUse" color-interpolation-filters="sRGB">
<feFlood flood-opacity="0" result="BackgroundImageFix"/>
<feColorMatrix in="SourceAlpha" type="matrix" values="0 0 0 0 0 0 0 0 0 0 0 0 0 0 0 0 0 0 127 0" result="hardAlpha"/>
<feOffset/>
<feGaussianBlur stdDeviation="20"/>
<feComposite in2="hardAlpha" operator="out"/>
<feColorMatrix type="matrix" values="0 0 0 0 0 0 0 0 0 0 0 0 0 0 0 0 0 0 1 0"/>
<feBlend mode="normal" in2="BackgroundImageFix" result="effect1_dropShadow_1310_101"/>
<feBlend mode="normal" in="SourceGraphic" in2="effect1_dropShadow_1310_101" result="shape"/>
</filter>
</defs>
</svg>
