<svg width="18" height="18" viewBox="0 0 18 18" fill="none" xmlns="http://www.w3.org/2000/svg">
<path fill-rule="evenodd" clip-rule="evenodd" d="M13.2862 11.2656C14.0525 10.116 14.4992 8.73503 14.4992 7.24976C14.4992 3.24583 11.2534 0 7.24958 0C3.24575 0 0 3.24583 0 7.24976C0 11.2537 3.24575 14.4995 7.24958 14.4995C8.73446 14.4995 10.1151 14.0531 11.2645 13.2871C11.3111 13.3528 11.3639 13.4154 11.4227 13.4742L15.5237 17.5753C16.0899 18.1416 17.0079 18.1416 17.5742 17.5753C18.1404 17.0091 18.1404 16.091 17.5742 15.5248L13.4732 11.4237C13.4144 11.3649 13.3518 11.3122 13.2862 11.2656ZM7.24958 12.4696C4.36682 12.4696 2.02988 10.1326 2.02988 7.24976C2.02988 4.36693 4.36682 2.02993 7.24958 2.02993C10.1323 2.02993 12.4693 4.36693 12.4693 7.24976C12.4693 10.1326 10.1323 12.4696 7.24958 12.4696Z" fill="#282831"/>
</svg>
