<svg width="34" height="40" viewBox="0 0 34 40" fill="none" xmlns="http://www.w3.org/2000/svg">
<path d="M10.0579 38.6999C9.81183 38.9278 10.0658 39.3269 10.3766 39.2005L26.0636 32.8196C26.4478 32.5503 26.4066 31.9685 25.9881 31.7567L20.8241 29.1438L26.6744 23.704C26.9152 23.4801 26.6749 23.0873 26.3659 23.1996L10.6201 28.9262C10.3004 29.2234 10.3761 29.7444 10.7652 29.9413L16.4185 32.8062L10.0579 38.6999Z" fill="#65F4D8"/>
<path d="M0.769684 21.8507L9.98579 2.10187C10.3017 1.42494 10.9685 0.980478 11.7149 0.949379L32.7506 0.072891C33.2531 0.0519534 33.4686 0.70256 33.0529 0.985697L1.50426 22.4754C1.08422 22.7615 0.554764 22.3112 0.769684 21.8507Z" fill="#65F4D8"/>
</svg>
