<svg width="38" height="28" viewBox="0 0 38 28" fill="none" xmlns="http://www.w3.org/2000/svg">
<path d="M23.29 0.736665L4.11642 7.12786C3.42736 7.35755 2.91698 7.94276 2.78313 8.65665L0.277662 22.0191C0.188986 22.4921 0.754097 22.805 1.10794 22.479L23.787 1.57868C24.1831 1.21358 23.8011 0.566294 23.29 0.736665Z" fill="#65F4D8"/>
<path d="M35.5754 4.79178C35.7872 4.46249 35.384 4.08523 35.0695 4.31848L19.1923 16.0941C18.8363 16.5103 19.052 17.156 19.5868 17.2737L26.1843 18.7255L21.153 26.5763C20.9459 26.8994 21.3318 27.2736 21.6485 27.0567L37.7825 16.0038C38.0574 15.5748 37.8203 15.0079 37.3232 14.8984L30.0993 13.304L35.5754 4.79178Z" fill="#65F4D8"/>
</svg>